<?xml version="1.0" standalone="no"?>
<!DOCTYPE svg PUBLIC "-//W3C//DTD SVG 20010904//EN"
 "http://www.w3.org/TR/2001/REC-SVG-20010904/DTD/svg10.dtd">
<svg version="1.0" xmlns="http://www.w3.org/2000/svg"
 width="16.000000pt" height="16.000000pt" viewBox="0 0 16.000000 16.000000"
 preserveAspectRatio="xMidYMid meet">
<metadata>
Created by potrace 1.11, written by Peter Selinger 2001-2013
</metadata>
<g transform="translate(0.000000,16.000000) scale(0.004267,-0.004267)"
fill="#000000" stroke="none">
<path d="M1671 3245 c-344 -75 -594 -300 -633 -571 -14 -97 -9 -114 32 -114
29 0 30 -1 30 -47 0 -27 3 -58 6 -70 5 -19 1 -22 -28 -25 l-33 -3 3 -107 2
-108 -30 0 -30 0 0 63 c0 76 -21 119 -78 163 -72 56 -158 53 -228 -8 -50 -44
-62 -74 -65 -157 l-2 -72 36 -26 c34 -24 37 -31 37 -73 0 -39 -4 -49 -29 -67
-17 -14 -32 -18 -38 -12 -6 6 -9 -100 -9 -279 l1 -288 28 -42 c78 -118 254
-106 325 23 15 25 17 72 20 313 l3 282 30 0 29 0 0 -460 c0 -295 4 -477 11
-510 20 -94 95 -145 259 -178 l95 -19 5 -194 c4 -144 10 -203 21 -229 22 -48
80 -97 126 -106 20 -4 108 -1 196 6 131 11 188 11 322 1 182 -15 219 -9 256
37 45 58 51 88 56 294 l6 197 26 5 c14 3 46 8 71 12 131 19 220 69 256 141 17
36 18 67 15 521 l-3 482 31 0 31 0 1 -157 c0 -87 4 -217 8 -290 6 -127 7 -133
37 -170 40 -51 87 -73 152 -73 95 0 157 48 182 140 14 51 3 563 -11 554 -5 -3
-20 3 -34 13 -35 26 -36 100 -1 132 15 14 30 20 37 15 19 -12 4 151 -18 189
-32 54 -87 90 -147 95 -71 6 -117 -11 -160 -58 -42 -47 -60 -105 -50 -166 l7
-46 -29 4 -29 3 4 86 c4 117 0 129 -50 129 l-39 0 0 65 0 64 35 7 c20 3 37 13
40 23 11 35 -25 176 -65 258 -53 107 -124 184 -254 272 -109 74 -194 108 -340
136 -87 17 -206 20 -206 6 0 -5 -3 -17 -6 -25 -5 -12 2 -19 24 -27 17 -6 33
-17 36 -24 8 -21 -33 -45 -77 -45 -73 0 -105 41 -47 61 24 9 30 17 30 40 0 29
0 29 -62 28 -35 0 -92 -7 -127 -14z m-71 -235 c18 0 40 -33 40 -61 0 -43 -25
-85 -67 -114 -46 -30 -82 -32 -117 -4 -19 15 -26 30 -26 55 0 60 97 144 148
128 8 -2 17 -4 22 -4z m689 -30 c46 -23 81 -64 81 -95 0 -12 -9 -34 -21 -49
-54 -69 -193 4 -193 101 0 62 59 81 133 43z m-609 -91 c-10 -23 -10 -32 0 -44
18 -22 -6 -48 -38 -42 -26 5 -62 -22 -62 -47 0 -22 -31 -28 -51 -10 -20 18
-54 12 -63 -11 -10 -27 -36 -17 -36 13 0 15 -3 32 -7 38 -5 5 0 1 10 -9 9 -11
17 -15 17 -9 0 5 18 10 39 10 22 0 52 7 68 16 43 23 112 93 120 124 3 15 8 21
11 14 2 -7 -1 -26 -8 -43z m45 40 c11 -16 1 -19 -13 -3 -7 8 -8 14 -3 14 5 0
13 -5 16 -11z m-338 -61 c-3 -7 -5 -2 -5 12 0 14 2 19 5 13 2 -7 2 -19 0 -25z
m549 8 c26 18 43 2 23 -22 -10 -13 -10 -20 0 -36 18 -29 -2 -49 -26 -25 -16
15 -18 15 -35 0 -27 -24 -49 -1 -25 25 16 17 16 20 2 32 -12 10 -13 16 -3 27
10 12 13 12 26 -1 13 -13 18 -13 38 0z m-549 -48 c-3 -8 -6 -5 -6 6 -1 11 2
17 5 13 3 -3 4 -12 1 -19z m-137 -102 c0 -15 12 -35 32 -51 31 -26 34 -27 146
-23 128 3 129 3 116 -69 -8 -44 -44 -47 -44 -4 l0 29 -104 4 c-87 2 -109 7
-133 24 -28 21 -58 88 -47 105 11 19 34 9 34 -15z m1370 4 c0 -31 -27 -78 -53
-92 -12 -7 -69 -15 -127 -18 l-105 -5 -3 -32 c-2 -25 -8 -33 -23 -33 -16 0
-19 7 -19 55 l0 55 123 0 c110 0 126 2 145 20 12 11 25 32 28 45 7 30 34 33
34 5z m-691 -152 c1 -20 -4 -28 -15 -28 -12 0 -15 6 -10 23 3 12 6 36 7 52 1
29 1 30 9 5 4 -14 8 -37 9 -52z m200 -5 c1 -14 -5 -23 -14 -23 -16 0 -19 20
-8 71 l7 34 7 -30 c4 -16 7 -40 8 -52z m-397 22 c2 -31 -1 -45 -9 -45 -9 0
-13 16 -13 45 0 25 4 45 9 45 5 0 11 -20 13 -45z m63 -408 c64 -25 105 -77
105 -132 0 -14 5 -25 10 -25 6 0 10 22 10 49 0 43 4 53 30 75 110 92 260 19
260 -127 0 -35 -33 -101 -70 -141 -24 -25 -31 -28 -44 -17 -8 7 -27 11 -43 9
-26 -3 -28 -6 -28 -47 0 -50 -13 -61 -40 -31 -22 24 -70 27 -79 4 -10 -26 -7
-46 10 -65 14 -15 14 -21 2 -37 -13 -19 -15 -18 -57 18 -42 37 -43 38 -27 61
20 29 20 53 0 73 -22 22 -38 20 -73 -9 l-30 -26 -56 55 c-30 30 -62 71 -70 90
-17 40 -19 114 -5 136 9 13 15 10 40 -17 34 -37 64 -42 80 -14 15 29 12 43
-15 75 -31 36 -31 43 -2 49 38 7 61 6 92 -6z m-680 -294 c7 -30 2 -38 -20 -30
-9 4 -15 19 -15 36 0 37 25 33 35 -6z m3 -111 c3 -28 0 -33 -15 -30 -12 2 -19
14 -21 36 -3 28 0 33 15 30 12 -2 19 -14 21 -36z m0 -111 c3 -28 1 -33 -13
-27 -9 3 -19 6 -21 6 -2 0 -4 14 -4 31 0 45 34 36 38 -10z m915 -107 c18 -9
49 -32 69 -52 33 -32 43 -36 82 -33 78 4 165 -48 185 -113 6 -17 10 -80 10
-141 0 -97 -3 -116 -26 -163 l-25 -53 -14 25 c-11 23 -10 32 6 69 27 59 26 76
-3 49 -35 -33 -43 -26 -14 11 69 91 41 224 -58 271 -26 13 -55 17 -101 14 -51
-2 -61 -1 -48 9 14 10 11 15 -24 38 -47 31 -137 46 -196 33 -82 -18 -144 -77
-170 -159 l-14 -44 -1 35 c-1 19 3 51 9 69 5 19 8 37 5 39 -9 10 -84 -31 -114
-62 -16 -17 -37 -48 -45 -68 -18 -42 -22 -103 -6 -93 14 8 13 2 -5 -31 -34
-66 -12 -166 51 -224 60 -55 166 -83 122 -33 -31 37 -60 163 -37 163 5 0 9 -9
9 -20 0 -51 67 -137 132 -171 21 -10 61 -24 90 -30 29 -6 61 -16 71 -21 62
-32 -86 -31 -160 2 -26 11 -67 20 -97 20 -81 0 -126 17 -177 69 -42 41 -48 53
-54 104 -5 36 -3 68 3 82 8 17 8 41 0 84 -9 46 -8 70 1 101 25 83 112 149 197
150 29 0 47 6 60 21 20 22 80 56 124 70 35 12 125 2 163 -17z m80 -594 c13 0
44 6 69 14 35 10 48 11 61 1 25 -18 21 -23 -25 -36 -24 -6 -45 -14 -48 -18
-12 -16 -64 -51 -75 -51 -7 0 -15 9 -18 20 -3 13 0 20 9 20 30 0 12 20 -36 41
-73 31 -85 53 -16 29 30 -11 66 -20 79 -20z m-57 -177 c-3 -21 -8 -104 -12
-184 -5 -124 -9 -147 -22 -145 -8 2 -49 -3 -91 -11 -42 -7 -90 -12 -106 -11
-17 1 -35 -1 -41 -5 -8 -4 -9 6 -3 36 4 23 8 113 9 200 l0 157 136 0 136 0 -6
-37z"/>
<path d="M1820 2036 c0 -9 5 -16 10 -16 6 0 10 4 10 9 0 6 -4 13 -10 16 -5 3
-10 -1 -10 -9z"/>
<path d="M1987 2034 c-8 -8 1 -24 14 -24 5 0 9 7 9 15 0 15 -12 20 -23 9z"/>
<path d="M1906 1981 c-4 -7 -5 -15 -2 -18 9 -9 19 4 14 18 -4 11 -6 11 -12 0z"/>
<path d="M1735 1970 c3 -5 10 -10 16 -10 5 0 9 5 9 10 0 6 -7 10 -16 10 -8 0
-12 -4 -9 -10z"/>
<path d="M2060 1964 c0 -9 5 -14 12 -12 18 6 21 28 4 28 -9 0 -16 -7 -16 -16z"/>
<path d="M1816 1905 c4 -8 10 -12 15 -9 14 8 10 24 -6 24 -9 0 -12 -6 -9 -15z"/>
<path d="M1980 1905 c0 -9 5 -15 11 -13 6 2 11 8 11 13 0 5 -5 11 -11 13 -6 2
-11 -4 -11 -13z"/>
<path d="M1831 3176 c-10 -12 -8 -17 9 -26 31 -17 92 -4 88 18 -4 23 -80 29
-97 8z m69 -6 c0 -5 -12 -10 -26 -10 -14 0 -23 4 -19 10 3 6 15 10 26 10 10 0
19 -4 19 -10z"/>
<path d="M3174 2126 c-9 -23 0 -51 16 -51 10 0 15 10 15 29 0 32 -21 47 -31
22z"/>
<path d="M620 2095 c0 -23 5 -35 14 -35 18 0 26 32 14 54 -15 27 -28 18 -28
-19z"/>
</g>
</svg>
